{"title":"Battleship 2012 CAM READNFO XViD v4 - INSPiRAL","uid":7211251,"size":1708072587,"categoryP":"video","categoryS":"movies","magnet":"?xt=urn:btih:402ec50afd392bc272642884aec82f7ee37db1e6&amp;dn=Battleship+2012+CAM+READNFO+XViD+v4+-+INSPiRAL&amp;tr=udp%3A%2F%2Ftracker.openbittorrent.com%3A80&amp;tr=udp%3A%2F%2Fopen.demonii.com%3A1337&amp;tr=udp%3A%2F%2Ftracker.coppersurfer.tk%3A6969&amp;tr=udp%3A%2F%2Fexodus.desync.com%3A6969","seeders":1,"leechers":0,"uploader":"HeroMaster","files":-1,"time":1335242617,"description":"Battleship 2012 CAM READNFO XViD v4 - INSPiRAL\n\n\nIMDB: \n &lt;a href=&quot;\nhttp://www.imdb.com/title/tt1440129/&quot; rel=&quot;nofollow&quot; target=&quot;_NEW&quot;&gt;\nhttp://www.imdb.com/title/tt1440129/&lt;/a&gt;\n\n\nSOURCES:\n\nVIDEO -  Twixx,p76 THANKS\nAUDIO -  26K THANKS\nSUBS  - None Add\n\nSTATS:\n\nVideo\nID                               : 0\nFormat                           : MPEG-4 Visual\nFormat profile                   : Advanced Simple@L5\nFormat settings, BVOP            : 2\nFormat settings, QPel            : No\nFormat settings, GMC             : No warppoints\nFormat settings, Matrix          : Default (MPEG)\nMuxing mode                      : Packed bitstream\nCodec ID                         : XVID\nCodec ID/Hint                    : XviD\nDuration                         : 2h 0mn\nBit rate                         : 1 720 Kbps\nWidth                            : 720 pixels\nHeight                           : 288 pixels\nDisplay aspect ratio             : 2.500\nFrame rate                       : 29.970 fps\nColor space                      : YUV\nChroma subsampling               : 4:2:0\nBit depth                        : 8 bits\nScan type                        : Progressive\nCompression mode                 : Lossy\nBits/(Pixel*Frame)               : 0.277\nStream size                      : 1.45 GiB (92%)\nWriting library                  : XviD 64\n\nAudio\nID                               : 1\nFormat                           : MPEG Audio\nFormat version                   : Version 1\nFormat profile                   : Layer 3\nCodec ID                         : 55\nCodec ID/Hint                    : MP3\nDuration                         : 2h 0mn\nBit rate mode                    : Constant\nBit rate                         : 128 Kbps\nChannel(s)                       : 2 channels\nSampling rate                    : 44.1 KHz\nCompression mode                 : Lossy\nStream size                      : 111 MiB (7%)\nAlignment                        : Split accross interleaves\nInterleave, duration             : 33 ms (1.00 video frame)\nInterleave, preload duration     : 500 ms\n\n\nPoster:\n\n &lt;a href=&quot;\nhttp://i.imgur.com/RHqci.jpg&quot; rel=&quot;nofollow&quot; target=&quot;_NEW&quot;&gt;\nhttp://i.imgur.com/RHqci.jpg&lt;/a&gt;\n\n\nScreens:\n\n &lt;a href=&quot;\nhttp://i.imgur.com/Rs127.png&quot; rel=&quot;nofollow&quot; target=&quot;_NEW&quot;&gt;\nhttp://i.imgur.com/Rs127.png&lt;/a&gt;\n\n &lt;a href=&quot;\nhttp://i.imgur.com/vNj0E.png&quot; rel=&quot;nofollow&quot; target=&quot;_NEW&quot;&gt;\nhttp://i.imgur.com/vNj0E.png&lt;/a&gt;\n\n &lt;a href=&quot;\nhttp://i.imgur.com/eYnrQ.png&quot; rel=&quot;nofollow&quot; target=&quot;_NEW&quot;&gt;\nhttp://i.imgur.com/eYnrQ.png&lt;/a&gt;\n\n\nENJOY!","torrent":{"xt":"urn:btih:402ec50afd392bc272642884aec82f7ee37db1e6","amp;dn":"Battleship+2012+CAM+READNFO+XViD+v4+-+INSPiRAL","amp;tr":["udp%3A%2F%2Ftracker.openbittorrent.com%3A80","udp%3A%2F%2Fopen.demonii.com%3A1337","udp%3A%2F%2Ftracker.coppersurfer.tk%3A6969","udp%3A%2F%2Fexodus.desync.com%3A6969"],"infoHash":"402ec50afd392bc272642884aec82f7ee37db1e6","infoHashBuffer":{"type":"Buffer","data":[64,46,197,10,253,57,43,194,114,100,40,132,174,200,47,126,227,125,177,230]},"announce":[],"urlList":[]}}